#N canvas 882 260 450 300 10;
#X obj 99 30 inlet;
#X obj 99 105 mtof;
#X obj 99 130 osc~;
#X obj 99 76 unpack 0 0;
#X obj 280 114 / 127;
#X obj 99 198 *~;
#X obj 99 271 outlet~;
#X obj 158 116 adsr;
#X obj 99 226 *~;
#X obj 253 90 sel 0;
#X obj 76 160 -~ 0.5;
#X connect 0 0 3 0;
#X connect 1 0 2 0;
#X connect 2 0 10 0;
#X connect 3 0 1 0;
#X connect 3 1 9 0;
#X connect 3 1 7 0;
#X connect 4 0 8 1;
#X connect 5 0 8 0;
#X connect 7 0 5 1;
#X connect 8 0 6 0;
#X connect 9 1 4 0;
#X connect 10 0 5 0;
