#N canvas 603 256 674 540 10;
#X obj 99 30 inlet;
#X obj 99 105 mtof;
#X obj 99 76 unpack 0 0;
#X obj 280 114 / 127;
#X obj 99 198 *~;
#X obj 99 271 outlet~;
#X obj 158 116 adsr;
#X obj 99 226 *~;
#X obj 253 90 sel 0;
#X obj 74 173 -~ 0.5;
#X obj 99 130 phasor~;
#X obj 40 152 expr~ $v1 > 0.5;
#X connect 0 0 2 0;
#X connect 1 0 10 0;
#X connect 2 0 1 0;
#X connect 2 1 8 0;
#X connect 2 1 6 0;
#X connect 3 0 7 1;
#X connect 4 0 7 0;
#X connect 6 0 4 1;
#X connect 7 0 5 0;
#X connect 8 1 3 0;
#X connect 9 0 4 0;
#X connect 10 0 11 0;
#X connect 11 0 9 0;
