#N canvas 1062 440 585 426 10;
#N canvas 998 81 1436 978 interface 0;
#X obj 512 118 notein;
#X floatatom 454 132 5 0 0 0 - - -;
#X obj 944 514 dac~;
#X obj 512 182 pack 0 0 0;
#X obj 121 150 hsl 128 20 0 1 0 0 empty empty Sine -2 -8 1 10 -204786
-262144 -1 0 1;
#X obj 287 167 vsl 15 128 0 300 0 0 empty empty A 0 -9 1 10 -4034 -1
-1 0 1;
#X obj 314 167 vsl 15 128 0 300 0 0 empty empty D 0 -9 1 10 -4034 -1
-1 0 1;
#X obj 342 167 vsl 15 128 0 1 0 0 empty empty S 0 -9 1 10 -4034 -1
-1 0 1;
#X obj 369 167 vsl 15 128 0 3000 0 0 empty empty R 0 -9 1 10 -4034
-1 -1 0 1;
#X obj 317 488 - 10;
#X obj 356 488 - 10;
#X obj 406 487 - 0.1;
#X obj 458 485 - 10;
#X obj 317 525 s a;
#X obj 356 526 s d;
#X obj 406 526 s s;
#X obj 458 528 s r;
#X obj 512 237 note;
#X obj 809 112 notein;
#X floatatom 751 126 5 0 0 0 - - -;
#X obj 809 176 pack 0 0 0;
#X obj 121 197 hsl 128 20 0 1 0 0 empty empty Saw -2 -8 1 10 -204786
-4034 -1 0 1;
#X obj 809 349 *~;
#X obj 809 231 notesaw;
#X obj 512 355 *~;
#X obj 1130 112 notein;
#X floatatom 1072 126 5 0 0 0 - - -;
#X obj 1130 176 pack 0 0 0;
#X obj 121 242 hsl 128 20 0 1 0 0 empty empty Square -2 -8 1 10 -204786
-1 -1 0 1;
#X obj 1130 349 *~;
#X obj 1130 231 notesquare;
#X obj 1130 143 poly 1 1;
#X obj 1130 201 route 1;
#X obj 809 143 poly 1 1;
#X obj 809 201 route 1;
#X obj 512 149 poly 1 1;
#X obj 512 207 route 1;
#X obj 510 482 delwrite~ delayLeft 4000;
#X obj 669 481 delwrite~ delayRight 4000;
#X obj 623 581 vd~ delayLeft;
#X obj 815 580 vd~ delayRight;
#X obj 624 556 sig~;
#X obj 813 551 sig~;
#X floatatom 122 291 5 0 0 2 DelayL - -;
#X floatatom 216 291 5 0 0 2 DelayR - -;
#X obj 622 673 vd~ delayLeft;
#X obj 814 672 vd~ delayRight;
#X obj 623 648 sig~;
#X obj 812 643 sig~;
#X floatatom 122 315 5 0 0 0 - - -;
#X floatatom 217 315 5 0 0 0 - - -;
#N canvas 1951 348 450 300 interface 0;
#X restore 1147 436 pd interface;
#X connect 0 0 1 0;
#X connect 0 0 35 0;
#X connect 0 1 35 1;
#X connect 3 0 36 0;
#X connect 4 0 24 1;
#X connect 5 0 9 0;
#X connect 6 0 10 0;
#X connect 7 0 11 0;
#X connect 8 0 12 0;
#X connect 9 0 13 0;
#X connect 10 0 14 0;
#X connect 11 0 15 0;
#X connect 12 0 16 0;
#X connect 17 0 24 0;
#X connect 18 0 19 0;
#X connect 18 0 33 0;
#X connect 18 1 33 1;
#X connect 20 0 34 0;
#X connect 21 0 22 1;
#X connect 22 0 2 0;
#X connect 22 0 2 1;
#X connect 23 0 22 0;
#X connect 24 0 2 0;
#X connect 24 0 2 1;
#X connect 25 0 26 0;
#X connect 25 0 31 0;
#X connect 25 1 31 1;
#X connect 27 0 32 0;
#X connect 28 0 29 1;
#X connect 29 0 2 0;
#X connect 29 0 2 1;
#X connect 29 0 37 0;
#X connect 29 0 38 0;
#X connect 30 0 29 0;
#X connect 31 0 27 0;
#X connect 31 1 27 1;
#X connect 31 2 27 2;
#X connect 32 0 30 0;
#X connect 33 0 20 0;
#X connect 33 1 20 1;
#X connect 33 2 20 2;
#X connect 34 0 23 0;
#X connect 35 0 3 0;
#X connect 35 1 3 1;
#X connect 35 2 3 2;
#X connect 36 0 17 0;
#X connect 39 0 2 0;
#X connect 40 0 2 1;
#X connect 41 0 39 0;
#X connect 42 0 40 0;
#X connect 43 0 41 0;
#X connect 44 0 42 0;
#X connect 45 0 2 0;
#X connect 46 0 2 1;
#X connect 47 0 45 0;
#X connect 48 0 46 0;
#X connect 49 0 47 0;
#X connect 50 0 48 0;
#X coords 0 -1 1 1 300 250 2 100 100;
#X restore 120 -759 pd interface;
#X text 331 -724;
#X coords 0 426 1 425 300 200 0;
